<mxfile host="app.diagrams.net" modified="2024-05-25T07:50:29.960Z" agent="Mozilla/5.0 (Windows NT 10.0; Win64; x64) AppleWebKit/537.36 (KHTML, like Gecko) Chrome/124.0.0.0 Safari/537.36" version="24.4.6" etag="rm5KQei_ANRow62BvWif" type="github">
  <diagram name="第 1 页" id="PjAcBqRV2fCHoLvx2eVG">
    <mxGraphModel>
      <root>
        <mxCell id="0" />
        <mxCell id="1" parent="0" />
      </root>
    </mxGraphModel>
  </diagram>
</mxfile>
